<svg width="800" height="600" viewBox="0 0 800 600" xmlns="http://www.w3.org/2000/svg">
  <defs>
    <linearGradient id="grad" x1="0%" y1="0%" x2="100%" y2="100%">
      <stop offset="0%" style="stop-color:#1e3a8a;stop-opacity:1" />
      <stop offset="100%" style="stop-color:#3b82f6;stop-opacity:1" />
    </linearGradient>
    <pattern id="grid" width="40" height="40" patternUnits="userSpaceOnUse">
      <path d="M 40 0 L 0 0 0 40" fill="none" stroke="rgba(255,255,255,0.1)" stroke-width="1"/>
    </pattern>
  </defs>
  
  <rect width="100%" height="100%" fill="url(#grad)"/>
  <rect width="100%" height="100%" fill="url(#grid)"/>
  
  <circle cx="400" cy="300" r="90" fill="rgba(255,255,255,0.1)"/>
  <g transform="translate(350, 250) scale(2)" fill="#ffffff" opacity="0.9">
    <path d="M20,8.94a1.12,1.12,0,0,1-.32.81l-7,7a1.15,1.15,0,0,1-1.62,0l-7-7A1.12,1.12,0,0,1,4.93,8L11.4,14.43,17.87,8A1.14,1.14,0,0,1,20,8.94Z" transform="rotate(-90 12 12)"/>
    <path d="M4,15.06a1.12,1.12,0,0,1,.32-.81l7-7a1.15,1.15,0,0,1,1.62,0l7,7a1.12,1.12,0,0,1-1.13,1.76L12.6,9.57,6.13,16A1.14,1.14,0,0,1,4,15.06Z" transform="rotate(-90 12 12) translate(10 0)"/>
  </g>
  
  <text x="50%" y="75%" font-family="Arial, sans-serif" font-size="32" fill="white" text-anchor="middle" letter-spacing="2" opacity="0.8">TEXNOLOGİYA</text>
</svg>